<?xml version="1.0" standalone="no"?>
<!DOCTYPE svg PUBLIC "-//W3C//DTD SVG 20010904//EN"
 "http://www.w3.org/TR/2001/REC-SVG-20010904/DTD/svg10.dtd">
<svg version="1.0" xmlns="http://www.w3.org/2000/svg"
 width="700.000000pt" height="700.000000pt" viewBox="0 0 700.000000 700.000000"
 preserveAspectRatio="xMidYMid meet">
<metadata>
Created by potrace 1.14, written by Peter Selinger 2001-2017
</metadata>
<g transform="translate(0.000000,700.000000) scale(0.100000,-0.100000)"
fill="#000000" stroke="none">
<path d="M0 6125 l0 -875 115 0 115 0 2 758 3 757 758 3 757 2 0 115 0 115
-875 0 -875 0 0 -875z"/>
<path d="M5250 6885 l0 -115 758 -2 757 -3 3 -757 2 -758 115 0 115 0 0 875 0
875 -875 0 -875 0 0 -115z"/>
<path d="M1320 5520 l0 -260 230 0 230 0 0 -1125 0 -1125 -230 0 -230 0 0
-265 0 -265 810 0 810 0 0 265 0 265 -235 0 -235 0 2 1122 3 1123 233 3 232 2
0 260 0 260 -810 0 -810 0 0 -260z"/>
<path d="M3350 4130 l0 -1652 588 5 c323 3 630 10 682 16 136 15 241 45 356
101 307 149 547 441 673 818 149 444 138 1103 -24 1523 -153 398 -457 690
-815 783 -164 43 -229 47 -857 53 l-603 5 0 -1652z m1143 1115 c271 -57 429
-282 494 -705 26 -170 26 -719 0 -875 -64 -378 -221 -584 -483 -630 -49 -9
-151 -14 -271 -15 l-193 0 0 1120 0 1120 193 0 c128 0 215 -5 260 -15z"/>
<path d="M1320 2130 l0 -40 2215 0 2215 0 0 40 0 40 -2215 0 -2215 0 0 -40z"/>
<path d="M1507 1912 c-34 -38 -16 -101 33 -117 20 -6 59 9 72 29 14 21 8 73
-10 89 -25 22 -75 21 -95 -1z"/>
<path d="M3761 1904 c-12 -15 -21 -35 -21 -46 0 -25 44 -68 70 -68 29 0 70 44
70 75 0 61 -81 87 -119 39z"/>
<path d="M2189 1773 c0 -140 -1 -146 -16 -117 -21 43 -61 64 -122 64 -132 0
-195 -85 -195 -260 0 -169 63 -250 194 -250 63 0 104 20 121 59 17 38 29 30
29 -20 l0 -40 43 3 42 3 3 353 2 352 -50 0 -50 0 -1 -147z m-65 -147 c47 -19
66 -66 66 -161 0 -127 -44 -184 -134 -172 -74 10 -114 89 -102 200 12 121 77
172 170 133z"/>
<path d="M0 875 l0 -875 875 0 875 0 0 115 0 115 -758 2 -757 3 -3 758 -2 757
-115 0 -115 0 0 -875z"/>
<path d="M6768 993 l-3 -758 -757 -3 -758 -2 0 -115 0 -115 875 0 875 0 0 875
0 875 -115 0 -115 0 -2 -757z"/>
<path d="M2487 1706 c-4 -10 -7 -30 -7 -45 l0 -28 88 -5 c80 -5 142 -23 155
-45 3 -5 8 -23 12 -40 l7 -33 -84 0 c-105 0 -150 -13 -196 -54 -32 -30 -36
-39 -39 -92 -4 -70 8 -99 57 -132 31 -21 44 -23 112 -20 84 3 117 22 144 83
l13 30 1 -42 c0 -68 5 -73 69 -73 90 0 103 6 99 49 -3 34 -5 36 -43 41 l-40 5
-5 140 c-5 145 -14 178 -57 217 -35 32 -96 50 -188 55 -81 5 -93 4 -98 -11z
m253 -297 c0 -35 -29 -84 -59 -102 -42 -24 -125 -23 -151 3 -34 34 -23 82 25
108 11 6 57 12 103 12 77 0 82 -1 82 -21z"/>
<path d="M3161 1694 c-17 -14 -31 -34 -31 -44 0 -10 -4 -22 -10 -25 -6 -4 -10
12 -10 39 l0 46 -50 0 -50 0 0 -245 0 -245 50 0 50 0 0 138 c1 170 10 219 45
249 37 33 107 32 140 -2 25 -24 25 -26 25 -205 l0 -180 50 0 50 0 0 188 c0
175 -2 191 -22 232 -29 56 -74 80 -150 80 -46 0 -62 -5 -87 -26z"/>
<path d="M4215 1702 c-80 -51 -110 -126 -103 -261 8 -164 70 -235 200 -229 73
4 100 20 124 73 13 29 13 29 13 -25 -1 -131 -38 -164 -197 -174 l-110 -8 5
-41 c3 -23 7 -44 10 -46 2 -3 56 0 121 6 136 12 188 33 226 91 39 59 45 111
46 375 l0 247 -44 0 c-45 0 -45 0 -54 -42 -6 -24 -10 -36 -11 -27 -1 8 -15 28
-31 44 -27 25 -40 30 -98 33 -53 2 -73 -1 -97 -16z m191 -93 c29 -27 44 -76
44 -144 0 -115 -39 -170 -120 -170 -87 0 -125 61 -118 190 4 79 22 118 69 143
33 18 96 8 125 -19z"/>
<path d="M4815 1706 c-40 -17 -90 -75 -106 -123 -20 -56 -18 -188 4 -245 22
-57 83 -115 132 -124 20 -3 62 -4 95 -2 74 5 123 41 160 114 21 42 24 63 24
139 -1 129 -32 193 -116 236 -44 23 -147 25 -193 5z m154 -92 c34 -24 51 -74
51 -149 0 -113 -37 -165 -115 -165 -30 0 -47 6 -62 23 -36 39 -44 66 -44 142
0 80 15 123 53 149 29 21 87 20 117 0z"/>
<path d="M5509 1705 c-27 -14 -59 -69 -59 -100 0 -9 -4 -13 -10 -10 -5 3 -10
21 -10 38 0 75 -4 77 -96 77 l-84 0 0 -40 0 -40 45 0 45 0 0 -165 0 -165 -55
0 -55 0 0 -40 0 -40 165 0 165 0 0 40 0 40 -61 0 -61 0 4 118 c6 154 32 206
111 219 43 7 77 -22 77 -67 0 -29 1 -30 51 -30 l52 0 -6 52 c-7 57 -30 96 -68
115 -32 17 -118 16 -150 -2z"/>
<path d="M1350 1670 l0 -40 80 0 80 0 0 -165 0 -165 -95 0 -95 0 0 -40 0 -40
220 0 220 0 0 40 0 40 -75 0 -75 0 0 205 0 205 -130 0 -130 0 0 -40z"/>
<path d="M3600 1670 l0 -40 80 0 80 0 0 -165 0 -165 -95 0 -95 0 0 -40 0 -40
225 0 225 0 0 40 0 39 -77 3 -78 3 -3 203 -2 202 -130 0 -130 0 0 -40z"/>
</g>
</svg>
